<svg width="28" height="18" viewBox="0 0 28 18" fill="none" xmlns="http://www.w3.org/2000/svg">
<path d="M13.8086 0C17.4429 2.68069e-05 20.6112 1.66681 23.04 3.56445C25.4689 5.46224 27.1599 7.59161 27.8389 8.51562C28.0502 8.80353 28.0546 9.1735 27.8496 9.46582C27.1967 10.3967 25.5687 12.53 23.1631 14.4307C20.7575 16.3314 17.5735 18 13.8086 18C10.0273 18.0001 6.90761 16.3173 4.58398 14.4062C2.26061 12.4955 0.732645 10.3563 0.134758 9.44238C-0.0487916 9.16175 -0.0444759 8.81557 0.1455 8.53906C0.769263 7.63184 2.36084 5.49671 4.708 3.58887C7.05509 1.68123 10.1589 0.000120002 13.8086 0ZM14.2598 4.16211C14.1384 3.945 13.7337 3.94748 13.6074 4.16211C13.0457 5.117 11.7828 6.60338 9.28905 6.85742C9.11679 6.87505 8.98125 7.01178 9.00195 7.17383C9.57471 11.6052 12.9406 13.8424 13.6357 14.1699C13.8343 14.2634 14.0329 14.2635 14.2314 14.1699C14.9266 13.8424 18.3071 11.9923 18.8682 7.17285C18.8869 7.01127 18.7521 6.8697 18.5801 6.85742C16.1654 6.6261 14.7937 5.11702 14.2598 4.16211Z" fill="white"/>
</svg>
